<?xml version="1.0" encoding="utf-8"?>
<!-- Generator: Adobe Illustrator 17.0.0, SVG Export Plug-In . SVG Version: 6.00 Build 0)  -->
<!DOCTYPE svg PUBLIC "-//W3C//DTD SVG 1.1//EN" "http://www.w3.org/Graphics/SVG/1.1/DTD/svg11.dtd">
<svg version="1.1" id="Layer_1" xmlns="http://www.w3.org/2000/svg" xmlns:xlink="http://www.w3.org/1999/xlink" x="0px" y="0px"
	 width="500px" height="325px" viewBox="0 0 500 325" style="enable-background:new 0 0 500 325;" xml:space="preserve">
<g>
	<g>
		<path d="M477.305,149.873L359.936,32.501c-3.35-3.35-7.816-5.189-12.577-5.189c-4.767,0-9.229,1.842-12.58,5.189L324.123,43.16
			c-3.348,3.345-5.192,7.813-5.192,12.577c0,4.761,1.844,9.38,5.192,12.725l68.471,68.622H25.058
			c-9.808,0-17.558,7.678-17.558,17.489v15.069c0,9.811,7.75,18.263,17.558,18.263h368.314l-69.246,69.005
			c-3.348,3.35-5.192,7.697-5.192,12.461c0,4.759,1.844,9.169,5.192,12.516l10.656,10.625c3.35,3.35,7.813,5.176,12.58,5.176
			c4.761,0,9.227-1.85,12.577-5.2l117.369-117.369c3.358-3.361,5.205-7.848,5.192-12.617
			C482.511,157.718,480.666,153.228,477.305,149.873z"/>
	</g>
</g>
</svg>
