<?xml version="1.0" encoding="utf-8"?>
<!-- Generator: Adobe Illustrator 17.0.0, SVG Export Plug-In . SVG Version: 6.00 Build 0)  -->
<!DOCTYPE svg PUBLIC "-//W3C//DTD SVG 1.1//EN" "http://www.w3.org/Graphics/SVG/1.1/DTD/svg11.dtd">
<svg version="1.1" id="Layer_1" xmlns="http://www.w3.org/2000/svg" xmlns:xlink="http://www.w3.org/1999/xlink" x="0px" y="0px"
	 width="200px" viewBox="0 0 251 41.405" style="enable-background:new 0 0 251 41.405;" xml:space="preserve" fill="#222">
<g>
	<path d="M11.48,34.517v3.889H2.888V2.257h8.592v14.785c1.44-2.399,4.033-4.416,7.825-4.416c5.857,0,10.609,4.416,10.609,13.009
		v0.385c0,8.641-4.752,12.961-10.657,12.961C15.513,38.981,12.729,37.205,11.48,34.517z M21.177,26.021v-0.385
		c0-4.416-1.92-6.528-4.945-6.528c-3.12,0-4.992,2.257-4.992,6.48v0.385c0,4.271,1.872,6.432,4.992,6.432
		C19.449,32.404,21.177,30.148,21.177,26.021z"/>
	<path d="M33.511,13.298h8.593v4.993c1.584-3.745,4.224-5.377,8.112-5.329v8.017c-5.232-0.144-8.112,1.488-8.112,5.521v11.905
		h-8.593V13.298z"/>
	<path d="M53.623,6.482c0-2.544,2.016-4.464,4.705-4.464c2.688,0,4.752,1.92,4.752,4.464s-2.064,4.416-4.752,4.416
		C55.639,10.898,53.623,9.026,53.623,6.482z M54.055,13.298h8.593v25.107h-8.593V13.298z"/>
	<path d="M68.887,30.341V19.155h-3.024v-5.857h3.024V8.066h8.593v5.232h4.944v5.857h-4.944v10.369c0,1.824,0.912,2.641,2.544,2.641
		c0.96,0,1.68-0.145,2.448-0.433v6.529c-1.104,0.287-2.736,0.72-4.752,0.72C72.055,38.981,68.887,36.245,68.887,30.341z"/>
	<path d="M84.822,26.164V25.78c0-8.065,6-13.154,13.585-13.154c6.865,0,12.769,3.937,12.769,12.961v2.257H93.511
		c0.24,3.312,2.16,5.232,5.232,5.232c2.833,0,4.033-1.297,4.369-2.977h8.064c-0.768,5.664-5.136,8.881-12.721,8.881
		C90.583,38.981,84.822,34.373,84.822,26.164z M102.824,22.996c-0.144-3.024-1.632-4.705-4.417-4.705c-2.592,0-4.368,1.68-4.8,4.705
		H102.824z"/>
	<path d="M123.222,34.517v3.889h-8.592V2.257h8.592v14.785c1.44-2.399,4.033-4.416,7.825-4.416c5.857,0,10.609,4.416,10.609,13.009
		v0.385c0,8.641-4.752,12.961-10.657,12.961C127.255,38.981,124.471,37.205,123.222,34.517z M132.919,26.021v-0.385
		c0-4.416-1.92-6.528-4.945-6.528c-3.12,0-4.992,2.257-4.992,6.48v0.385c0,4.271,1.872,6.432,4.992,6.432
		C131.191,32.404,132.919,30.148,132.919,26.021z"/>
	<path d="M143.909,26.164V25.78c0-8.065,6.001-13.154,13.777-13.154c7.729,0,13.682,4.944,13.682,12.914v0.384
		c0,8.161-6.001,13.058-13.729,13.058S143.909,34.277,143.909,26.164z M162.631,26.021v-0.385c0-4.224-1.68-6.576-4.944-6.576
		c-3.216,0-4.992,2.256-4.992,6.48v0.384c0,4.32,1.68,6.673,4.992,6.673C160.902,32.597,162.631,30.196,162.631,26.021z"/>
	<path d="M173.429,31.444c0-5.904,4.993-8.208,13.346-8.208h2.4V22.66c0-2.4-0.576-3.984-3.312-3.984
		c-2.353,0-3.217,1.392-3.408,2.976h-8.065c0.385-6.048,5.137-9.025,12.002-9.025c6.912,0,11.328,2.832,11.328,9.505v16.273h-8.353
		v-2.929c-1.2,1.824-3.408,3.505-7.44,3.505C177.413,38.981,173.429,36.773,173.429,31.444z M189.175,29.62v-1.536h-2.257
		c-3.456,0-4.992,0.673-4.992,2.736c0,1.44,0.96,2.353,2.977,2.353C187.351,33.173,189.175,31.78,189.175,29.62z"/>
	<path d="M202.373,13.298h8.593v4.993c1.584-3.745,4.224-5.377,8.112-5.329v8.017c-5.232-0.144-8.112,1.488-8.112,5.521v11.905
		h-8.593V13.298z"/>
	<path d="M220.948,26.116v-0.384c0-8.545,4.705-13.106,10.657-13.106c3.937,0,6.289,1.681,7.729,4.225V2.257h8.593v36.148h-8.593
		v-4.08c-1.248,2.592-4.032,4.656-7.824,4.656C225.701,38.981,220.948,34.805,220.948,26.116z M239.574,25.973v-0.385
		c0-4.224-1.776-6.48-4.944-6.48c-3.216,0-4.944,2.16-4.944,6.528v0.385c0,4.224,1.872,6.384,4.849,6.384
		C237.654,32.404,239.574,30.244,239.574,25.973z"/>
</g>
</svg>
