<svg xmlns="http://www.w3.org/2000/svg" viewBox="0 0 32 32">
    <path style="line-height:normal;text-indent:0;text-align:start;text-decoration-line:none;text-decoration-style:solid;text-decoration-color:#000;text-transform:none;block-progression:tb;isolation:auto;mix-blend-mode:normal" d="M 11.337891 2.9140625 C 10.14455 2.8814022 9.0251952 3.6679287 9.0078125 4.9589844 L 9.0058594 4.9804688 L 9.0078125 5.0019531 C 9.0233525 5.5338319 9.1303059 6.1543687 9.171875 6.8828125 C 9.2108435 7.5656859 9.1804033 8.287404 9.0292969 8.84375 C 7.3155106 10.019694 6.1215609 11.649463 5.3242188 13.207031 C 4.4142257 14.984658 3.9990955 16.617103 3.96875 17.716797 C 3.921226 19.424705 3.8379328 22.830221 6.9453125 25.908203 C 8.8318923 27.777274 11.872081 28.08293 14.648438 27.986328 C 17.424793 27.889728 19.883914 27.373532 21.123047 26.808594 C 24.890934 25.089844 27.104162 22.663595 28.171875 20.298828 C 29.239588 17.934062 29.225431 15.669713 28.408203 14.126953 L 28.455078 14.230469 C 28.078467 13.271407 27.949219 11.304377 27.949219 10.253906 C 27.949219 9.3978309 27.662409 8.2544464 27.347656 7.0097656 C 27.190285 6.3874252 27.022096 5.7804588 26.867188 5.2792969 C 26.712278 4.7781349 26.642355 4.4705229 26.404297 4.0742188 C 26.175356 3.693092 25.782766 3.0848585 24.935547 3.015625 C 24.511938 2.9810082 24.088148 3.1400233 23.763672 3.375 C 23.439895 3.60947 23.172555 3.9159853 22.898438 4.3144531 C 22.898438 4.3144531 22.896484 4.3164062 22.896484 4.3164062 C 22.355956 5.075894 21.44822 6.4952114 21.138672 6.9765625 C 20.651839 6.9246751 19.344311 6.8248509 17.640625 7.0234375 C 17.407338 6.9224113 17.157019 6.8041449 16.904297 6.6875 C 16.685329 6.5531642 14.908262 5.4516614 13.126953 3.6855469 L 13.125 3.6855469 C 12.749003 3.3129434 12.306136 3.0826493 11.851562 2.9785156 C 11.681098 2.9394655 11.508368 2.9187283 11.337891 2.9140625 z M 11.414062 4.9394531 C 11.502287 4.9469892 11.60342 4.9911937 11.71875 5.1054688 C 12.121625 5.5049072 12.524729 5.867484 12.919922 6.2070312 C 12.383387 6.4255849 11.967496 6.7527989 11.611328 7.0585938 C 11.481126 7.170381 11.330786 7.2902029 11.191406 7.40625 C 11.189416 7.1870582 11.18161 6.9723979 11.169922 6.7675781 C 11.122872 5.943161 11.020659 5.2267363 11.009766 4.9863281 C 11.008491 5.2269035 11.149389 4.9168449 11.414062 4.9394531 z M 24.732422 5.2304688 C 24.741222 5.2727467 24.839405 5.4885977 24.957031 5.8691406 C 25.097622 6.3239787 25.25808 6.9063404 25.408203 7.5 C 25.70845 8.6873192 25.949219 10.085982 25.949219 10.253906 C 25.949219 11.401435 25.982359 13.403998 26.59375 14.960938 L 26.613281 15.013672 L 26.640625 15.064453 C 27.044397 15.826693 27.202693 17.580876 26.347656 19.474609 C 25.492619 21.368343 23.687081 23.440031 20.292969 24.988281 C 19.672102 25.271343 17.111518 25.900133 14.578125 25.988281 C 12.044732 26.076431 9.4839358 25.60821 8.3535156 24.488281 C 5.7529003 21.912269 5.9202744 19.515529 5.96875 17.773438 C 5.984405 17.206131 6.3237117 15.64431 7.1054688 14.117188 C 7.8872257 12.590063 9.0911474 11.047763 10.759766 10.119141 C 11.831423 9.5228715 12.475079 8.9530701 12.914062 8.5761719 C 13.353048 8.1992736 13.499565 8.0758051 13.871094 7.9921875 C 14.490937 7.8524449 15.690133 8.3860178 17.037109 8.9414062 L 17.298828 9.0507812 L 17.580078 9.0039062 C 19.381255 8.7077488 21.566406 8.953125 21.566406 8.953125 L 21.701172 8.96875 L 21.699219 8.9726562 C 22.478682 9.2089116 22.855933 9.4211725 23.300781 9.8261719 L 24.646484 8.3457031 C 24.231705 7.9680791 23.766164 7.6722721 23.238281 7.4277344 C 23.718547 6.6879107 24.196412 5.937722 24.535156 5.4628906 L 24.541016 5.4570312 L 24.544922 5.4492188 C 24.636612 5.3158211 24.666088 5.3042061 24.732422 5.2304688 z M 11.494141 11.001953 A 1.502 1.498 0 0 0 9.9921875 12.498047 A 1.502 1.498 0 0 0 11.494141 13.996094 A 1.502 1.498 0 0 0 12.996094 12.498047 A 1.502 1.498 0 0 0 11.494141 11.001953 z M 18.498047 12.001953 A 1.501 1.498 0 0 0 16.996094 13.5 A 1.501 1.498 0 0 0 18.498047 14.998047 A 1.501 1.498 0 0 0 19.998047 13.5 A 1.501 1.498 0 0 0 18.498047 12.001953 z M 10.027344 16.005859 C 9.6103438 16.026859 9.1046562 16.262156 8.9726562 17.035156 C 8.8416563 17.808156 9.6329687 18.96875 10.292969 18.96875 C 10.292969 18.96875 10.506203 19.031344 11.033203 18.902344 C 11.561203 18.773344 12.534687 18.066156 12.929688 17.035156 C 13.325688 16.005156 10.697344 15.971859 10.027344 16.005859 z M 10.345703 19.773438 L 8.96875 21.226562 C 9.5395309 21.76784 10.334323 22.442344 11.453125 22.773438 C 12.571927 23.10453 13.971315 23.041121 15.564453 22.330078 L 14.75 20.503906 C 13.493138 21.064863 12.674183 21.048625 12.021484 20.855469 C 11.368786 20.662312 10.838922 20.24116 10.345703 19.773438 z" font-weight="400" font-family="sans-serif" white-space="normal" overflow="visible"></path>
</svg>
