<?xml version="1.0" encoding="utf-8"?>
<!-- Generator: Adobe Illustrator 17.0.0, SVG Export Plug-In . SVG Version: 6.00 Build 0)  -->
<!DOCTYPE svg PUBLIC "-//W3C//DTD SVG 1.1//EN" "http://www.w3.org/Graphics/SVG/1.1/DTD/svg11.dtd">
<svg version="1.1" id="Capa_1" xmlns="http://www.w3.org/2000/svg" xmlns:xlink="http://www.w3.org/1999/xlink" x="0px" y="0px"
	 width="500px" height="325px" viewBox="0 0 500 325" style="enable-background:new 0 0 500 325;" xml:space="preserve">
<circle style="fill:#FFE17D;" cx="249.999" cy="162.5" r="157.739"/>
<path style="fill:#FFD164;" d="M272.898,297.341c-87.117,0-157.739-70.622-157.739-157.739c0-37.726,13.261-72.344,35.353-99.488
	c-35.537,28.923-58.251,72.995-58.251,122.386c0,87.116,70.621,157.739,157.739,157.739c49.391,0,93.464-22.714,122.386-58.251
	C345.243,284.08,310.623,297.341,272.898,297.341z"/>
<path style="fill:#9C6846;" d="M250,192.881c-30.391,0-59.401-3.529-86.016-9.907c-3.447-0.826-6.419,2.775-5.355,6.529
	c12.274,43.331,48.503,74.766,91.371,74.766s79.097-31.434,91.371-74.765c1.063-3.753-1.907-7.355-5.355-6.529
	C309.401,189.352,280.391,192.881,250,192.881z"/>
<g>
	<path style="fill:#7D5046;" d="M336.016,182.973c-26.615,6.379-55.625,9.907-86.016,9.907s-59.401-3.529-86.015-9.907
		c-3.447-0.826-6.419,2.775-5.355,6.529c3.213,11.343,8.102,21.839,14.287,31.201c25.288,4.804,51.014,7.446,77.095,7.446
		c26.073,0,51.79-2.641,77.069-7.441c6.187-9.363,11.077-19.861,14.29-31.206C342.434,185.748,339.463,182.147,336.016,182.973z"/>
	<path style="fill:#7D5046;" d="M196.572,147.492L196.572,147.492c-7.026,0-12.721-5.695-12.721-12.721v-20.61
		c0-7.026,5.695-12.721,12.721-12.721l0,0c7.026,0,12.721,5.695,12.721,12.721v20.61
		C209.293,141.797,203.598,147.492,196.572,147.492z"/>
</g>
<path style="fill:#9C6846;" d="M209.293,114.161c0-7.858-7.123-14.051-15.265-12.474v21.171c0,8.26,7.026,14.814,15.262,14.201
	h0.003V114.161z"/>
<path style="fill:#FFFFFF;" d="M318.424,200.35c2.75-4.713,5.051-9.763,6.982-15.02c-23.651,4.881-49.005,7.55-75.406,7.55
	c-26.417,0-51.785-2.672-75.448-7.558c1.94,5.283,4.279,10.342,7.047,15.074c3.201,5.472,8.62,8.971,14.516,9.688
	c17.652,2.147,35.643,3.299,53.885,3.299c18.238,0,36.225-1.151,53.873-3.298C309.788,209.367,315.218,205.844,318.424,200.35z"/>
<path style="fill:#7D5046;" d="M303.427,147.492L303.427,147.492c-7.026,0-12.721-5.695-12.721-12.721v-20.61
	c0-7.026,5.695-12.721,12.721-12.721l0,0c7.026,0,12.721,5.695,12.721,12.721v20.61
	C316.148,141.797,310.453,147.492,303.427,147.492z"/>
<path style="fill:#9C6846;" d="M316.148,114.161c0-7.858-7.123-14.051-15.265-12.474v21.171c0,8.26,7.026,14.814,15.262,14.201
	h0.003V114.161z"/>
<path d="M196.566,106.194c2.629,0,4.761-2.132,4.761-4.761s-2.132-4.761-4.761-4.761c-9.64,0-17.483,7.843-17.483,17.483v20.356
	c0,9.64,7.843,17.483,17.483,17.483s17.483-7.843,17.483-17.483V116.7c0-2.629-2.132-4.761-4.761-4.761s-4.761,2.132-4.761,4.761
	v17.812c0,4.39-3.571,7.962-7.961,7.962s-7.961-3.572-7.961-7.962v-20.356C188.604,109.766,192.176,106.194,196.566,106.194z"/>
<path d="M303.433,106.194c2.629,0,4.761-2.132,4.761-4.761s-2.132-4.761-4.761-4.761c-9.64,0-17.483,7.843-17.483,17.483v20.356
	c0,9.64,7.843,17.483,17.483,17.483c9.64,0,17.483-7.843,17.483-17.483V116.7c0-2.629-2.132-4.761-4.761-4.761
	s-4.761,2.132-4.761,4.761v17.812c0,4.39-3.571,7.962-7.961,7.962c-4.39,0-7.962-3.572-7.962-7.962v-20.356
	C295.471,109.766,299.043,106.194,303.433,106.194z"/>
<path d="M97.09,157.875c1.164-39.104,17.048-75.881,44.725-103.559c27.678-27.678,64.455-43.561,103.559-44.725
	c38.931-1.158,76.426,12.333,105.579,37.992c1.974,1.737,4.982,1.546,6.719-0.428c1.737-1.973,1.546-4.982-0.428-6.719
	c-30.97-27.259-70.799-41.595-112.152-40.362c-41.539,1.236-80.608,18.109-110.008,47.51c-29.401,29.4-46.274,68.468-47.51,110.008
	c-1.231,41.352,13.103,81.183,40.362,112.152c0.941,1.07,2.255,1.615,3.576,1.615c1.117,0,2.239-0.391,3.143-1.187
	c1.973-1.737,2.166-4.746,0.428-6.719C109.424,234.302,95.932,196.807,97.09,157.875z"/>
<path d="M372.065,55.258c-1.737-1.973-4.746-2.166-6.719-0.428c-1.973,1.737-2.166,4.746-0.428,6.719
	c25.658,29.152,39.15,66.647,37.992,105.578c-1.164,39.104-17.047,75.881-44.725,103.559s-64.455,43.561-103.559,44.725
	c-38.933,1.158-76.426-12.333-105.579-37.992c-1.973-1.737-4.982-1.546-6.719,0.428c-1.737,1.974-1.546,4.982,0.428,6.719
	C172.498,310.742,210.41,325,249.995,325c1.636,0,3.274-0.024,4.914-0.073c41.54-1.237,80.608-18.109,110.008-47.51
	c29.401-29.4,46.274-68.469,47.51-110.008C413.657,126.057,399.324,86.227,372.065,55.258z"/>
<path d="M156.408,180.939c-2.468,2.57-3.383,6.35-2.388,9.864c6.364,22.466,18.727,41.83,35.753,55.999
	c17.48,14.548,38.3,22.238,60.209,22.238c21.91,0,42.731-7.69,60.209-22.238c17.026-14.17,29.388-33.535,35.753-55.999
	c0.995-3.513,0.081-7.293-2.387-9.864c-2.281-2.377-5.519-3.345-8.659-2.593c-27.07,6.488-55.639,9.777-84.916,9.777
	s-57.846-3.29-84.916-9.777C161.925,177.593,158.688,178.562,156.408,180.939z M336.776,187.687
	c0.043,0.114,0.072,0.288,0.006,0.521c-5.754,20.314-17.361,38.525-32.682,51.276c-15.748,13.106-34.462,20.034-54.119,20.034
	s-38.372-6.928-54.119-20.034c-15.321-12.752-26.927-30.962-32.682-51.276c-0.066-0.233-0.037-0.408,0.006-0.521
	c2.242,0.535,4.497,1.04,6.758,1.533c2.078,5.225,4.638,10.232,7.619,14.883c3.892,6.073,10.622,10.188,18,11.007
	c18.17,2.018,36.478,3.041,54.417,3.041c17.934,0,36.239-1.023,54.405-3.039c7.394-0.821,14.137-4.954,18.038-11.054
	c2.963-4.634,5.505-9.622,7.575-14.834C332.267,188.73,334.529,188.223,336.776,187.687z M318.575,191.511
	c-1.264,2.563-2.655,5.043-4.172,7.417c-2.367,3.702-6.504,6.214-11.067,6.721c-17.819,1.978-35.77,2.981-53.354,2.981
	c-17.589,0-35.544-1.004-53.366-2.983c-4.552-0.505-8.677-3.003-11.035-6.682c-1.529-2.386-2.931-4.881-4.202-7.456
	c22.181,4.069,45.175,6.136,68.602,6.136C273.406,197.645,296.397,195.579,318.575,191.511z"/>
</svg>
