<svg height="512pt" viewBox="0 0 512 512.00033" width="512pt" xmlns="http://www.w3.org/2000/svg"><path d="m237.738281 11.011719c-70.339843 7.792969-128.859375 63.402343-139.738281 133.339843-8.960938 57.570313 12.871094 110.398438 51.480469 144.859376 16.898437 15.082031 26.519531 42.660156 26.519531 65.308593v1.480469h160v-1.480469c0-22.519531 9.40625-50.109375 26.246094-65.066406 32.953125-29.269531 53.75-71.902344 53.75-119.449219 0-94.382812-81.71875-169.671875-178.257813-158.992187zm0 0" fill="#ffe35c"/><path d="m176 402v-46h160v46c0 22.089844-17.910156 40-40 40h-80c-22.089844 0-40-17.910156-40-40zm0 0" fill="#fff"/><path d="m296 442v20c0 22.089844-17.910156 40-40 40-22.082031 0-40-17.917969-40-40v-20zm0 0" fill="#425072"/><path d="m216 356v-165.996094h80v165.996094c-9.679688 0-70.257812 0-80 0zm0 0" fill="#ff5284"/><path d="m256 110.003906 40 80h-80zm0 0" fill="#fff"/><path d="m256 512c27.570312 0 50-22.429688 50-50v-11.003906c22.792969-4.648438 40-24.847656 40-48.996094v-47.480469c0-21.933593 9.410156-45.617187 22.890625-57.589843 36.292969-32.242188 57.105469-78.503907 57.105469-126.925782 0-100.589844-87.101563-180.246094-189.355469-168.929687-74.925781 8.296875-136.980469 67.535156-148.523437 141.742187-8.988282 57.746094 11.464843 115.265625 54.703124 153.855469 13.648438 12.179687 23.179688 35.964844 23.179688 57.847656v47.480469c0 24.148438 17.203125 44.347656 40 48.996094v11.003906c0 27.625 22.375 50 50 50zm0-20c-16.570312 0-30-13.429688-30-30v-10h60v10c0 16.542969-13.460938 30-30 30zm-99.863281-210.25c-38.15625-34.054688-56.195313-84.84375-48.257813-135.859375 10.128906-65.113281 65.207032-117.65625 130.957032-124.9375 91.75-10.15625 167.160156 61.765625 167.160156 149.050781 0 42.710938-18.367188 83.523438-50.390625 111.972656-18.023438 16.011719-27.273438 42.265626-29.21875 64.023438h-20.390625v-155.996094c0-1.5625-.417969-3.195312-1.054688-4.472656l-40-80c-1.695312-3.390625-5.15625-5.527344-8.945312-5.527344-3.789063 0-7.25 2.140625-8.945313 5.527344l-39.996093 80c-.636719 1.269531-1.058594 2.921875-1.058594 4.472656v155.996094h-20.394532c-1.960937-21.726562-11.292968-48.035156-29.464843-64.25zm109.863281 64.25v-76c0-5.519531-4.480469-10-10-10-5.523438 0-10 4.480469-10 10v76h-20v-145.996094h60v145.996094zm-33.820312-165.996094 23.820312-47.640625 23.820312 47.640625zm-44.460938 231.996094h28.28125c5.519531 0 10-4.476562 10-10 0-5.519531-4.480469-10-10-10h-30v-26h140v26h-30c-5.523438 0-10 4.480469-10 10 0 5.523438 4.476562 9.992188 10 9.992188h28.277344c-4.128906 11.636718-15.242188 20.007812-28.277344 20.007812h-80c-13.039062 0-24.152344-8.359375-28.28125-20zm0 0"/><path d="m256 220.003906c-5.519531 0-10 4.476563-10 10 0 5.519532 4.480469 9.996094 10 9.996094s10-4.476562 10-9.996094c0-5.523437-4.480469-10-10-10zm0 0"/><path d="m0 170.003906c0 5.519532 4.476562 10 10 10h46c5.523438 0 10-4.480468 10-10 0-5.523437-4.476562-10-10-10h-46c-5.523438 0-10 4.476563-10 10zm0 0"/><path d="m501.996094 160.003906h-46c-5.519532 0-10 4.476563-10 10 0 5.519532 4.480468 10 10 10h46c5.523437 0 10-4.480468 10-10 0-5.523437-4.476563-10-10-10zm0 0"/><path d="m39.488281 295c2.773438 4.800781 8.894531 6.414062 13.660157 3.660156l34.640624-20c4.785157-2.761718 6.421876-8.875 3.660157-13.660156-2.761719-4.78125-8.875-6.421875-13.660157-3.660156l-34.640624 20c-4.78125 2.765625-6.421876 8.878906-3.660157 13.660156zm0 0"/><path d="m472.507812 45.003906c-2.761718-4.78125-8.878906-6.421875-13.660156-3.660156l-34.640625 20c-4.785156 2.761719-6.421875 8.875-3.660156 13.660156 2.769531 4.796875 8.890625 6.414063 13.660156 3.660156l34.640625-20c4.78125-2.761718 6.421875-8.878906 3.660156-13.660156zm0 0"/><path d="m87.789062 61.34375-34.640624-20c-4.78125-2.761719-10.898438-1.121094-13.660157 3.660156s-1.121093 10.898438 3.660157 13.660156l34.640624 20c4.773438 2.753907 10.894532 1.132813 13.660157-3.660156 2.761719-4.785156 1.125-10.898437-3.660157-13.660156zm0 0"/><path d="m472.507812 295c2.761719-4.78125 1.121094-10.894531-3.660156-13.660156l-34.640625-20c-4.785156-2.757813-10.898437-1.121094-13.660156 3.660156-2.761719 4.785156-1.125 10.898438 3.660156 13.660156l34.640625 20c4.773438 2.757813 10.890625 1.132813 13.660156-3.660156zm0 0"/></svg>
