<?xml version="1.0" encoding="utf-8"?>
<!-- Generator: Adobe Illustrator 17.0.0, SVG Export Plug-In . SVG Version: 6.00 Build 0)  -->
<!DOCTYPE svg PUBLIC "-//W3C//DTD SVG 1.1//EN" "http://www.w3.org/Graphics/SVG/1.1/DTD/svg11.dtd">
<svg version="1.1" id="Layer_1" xmlns="http://www.w3.org/2000/svg" xmlns:xlink="http://www.w3.org/1999/xlink" x="0px" y="0px"
	 width="68.256px" height="68px" viewBox="0 0 68.256 68" style="enable-background:new 0 0 68.256 68;" xml:space="preserve">
<path d="M34.123,66.849c3.497,0,6.341-2.845,6.341-6.341v-1.396c2.891-0.59,5.073-3.151,5.073-6.214v-6.022
	c0-2.782,1.193-5.785,2.903-7.304c4.603-4.089,7.242-9.956,7.242-16.097c0-12.757-11.046-22.859-24.015-21.424
	c-9.502,1.052-17.372,8.565-18.836,17.976c-1.14,7.324,1.454,14.618,6.938,19.512c1.731,1.545,2.94,4.561,2.94,7.336v6.022
	c0,3.063,2.182,5.624,5.073,6.214v1.396C27.782,64.012,30.619,66.849,34.123,66.849z M34.123,64.313
	c-2.101,0-3.805-1.703-3.805-3.805V59.24h7.609v1.268C37.928,62.606,36.22,64.313,34.123,64.313z M21.458,37.649
	c-4.839-4.319-7.127-10.76-6.12-17.23c1.285-8.258,8.27-14.921,16.608-15.845c11.636-1.288,21.2,7.833,21.2,18.903
	c0,5.417-2.329,10.593-6.391,14.201c-2.286,2.031-3.459,5.36-3.706,8.12h-2.586V26.013c0-0.198-0.053-0.405-0.134-0.567L35.257,15.3
	c-0.215-0.43-0.654-0.701-1.134-0.701c-0.481,0-0.919,0.271-1.134,0.701l-5.072,10.146c-0.081,0.161-0.134,0.371-0.134,0.567v19.784
	h-2.586C24.946,43.041,23.763,39.705,21.458,37.649z M35.391,45.797v-9.639c0-0.7-0.568-1.268-1.268-1.268
	c-0.7,0-1.268,0.568-1.268,1.268v9.639h-2.536V27.281h7.609v18.516H35.391z M31.102,24.745l3.021-6.042l3.021,6.042H31.102z
	 M25.463,54.167h3.587c0.7,0,1.268-0.568,1.268-1.268c0-0.7-0.568-1.268-1.268-1.268h-3.805v-3.297H43v3.297h-3.805
	c-0.7,0-1.268,0.568-1.268,1.268c0,0.701,0.568,1.267,1.268,1.267h3.586c-0.524,1.476-1.933,2.537-3.586,2.537H29.05
	C27.396,56.704,25.987,55.643,25.463,54.167z"/>
<path d="M34.123,29.818c-0.7,0-1.268,0.568-1.268,1.268c0,0.7,0.568,1.268,1.268,1.268s1.268-0.568,1.268-1.268
	C35.391,30.385,34.823,29.818,34.123,29.818z"/>
<path d="M1.656,23.477c0,0.7,0.568,1.268,1.268,1.268h5.834c0.7,0,1.268-0.568,1.268-1.268c0-0.7-0.568-1.268-1.268-1.268H2.925
	C2.224,22.208,1.656,22.776,1.656,23.477z"/>
<path d="M65.321,22.208h-5.834c-0.7,0-1.268,0.568-1.268,1.268c0,0.7,0.568,1.268,1.268,1.268h5.834c0.7,0,1.268-0.568,1.268-1.268
	C66.589,22.776,66.021,22.208,65.321,22.208z"/>
<path d="M6.664,39.329c0.352,0.609,1.128,0.813,1.732,0.464l4.393-2.536c0.607-0.35,0.814-1.126,0.464-1.732
	c-0.35-0.606-1.126-0.814-1.732-0.464l-4.393,2.536C6.522,37.947,6.314,38.723,6.664,39.329z"/>
<path d="M61.581,7.624c-0.35-0.606-1.126-0.814-1.732-0.464l-4.393,2.536c-0.607,0.35-0.814,1.126-0.464,1.732
	c0.351,0.608,1.128,0.813,1.732,0.464l4.393-2.536C61.723,9.006,61.931,8.23,61.581,7.624z"/>
<path d="M12.79,9.696L8.397,7.16C7.79,6.809,7.015,7.017,6.664,7.624S6.522,9.006,7.128,9.356l4.393,2.536
	c0.605,0.349,1.382,0.144,1.732-0.464C13.604,10.822,13.397,10.046,12.79,9.696z"/>
<path d="M61.581,39.329c0.35-0.606,0.142-1.382-0.464-1.732l-4.393-2.536c-0.607-0.35-1.382-0.142-1.732,0.464
	c-0.35,0.607-0.143,1.382,0.464,1.732l4.393,2.536C60.454,40.143,61.23,39.937,61.581,39.329z"/>
</svg>
