<?xml version="1.0" encoding="utf-8"?>
<!-- Generator: Adobe Illustrator 17.0.0, SVG Export Plug-In . SVG Version: 6.00 Build 0)  -->
<!DOCTYPE svg PUBLIC "-//W3C//DTD SVG 1.1//EN" "http://www.w3.org/Graphics/SVG/1.1/DTD/svg11.dtd">
<svg version="1.1" xmlns="http://www.w3.org/2000/svg" xmlns:xlink="http://www.w3.org/1999/xlink" x="0px" y="0px" width="1800px"
	 height="1000px" viewBox="0 0 1800 1000" style="enable-background:new 0 0 1800 1000;" xml:space="preserve">
<g id="Layer_2">
	<rect id="background" style="fill:#FFFFFF;" width="1800" height="1000"/>
</g>
<g id="Layer_3">
	<g>
		<g>
			<path style="fill:#111111;" d="M311,607v280H153V607H311 M313,605h-2.045H153.416H151v1.946v280.209V889h2.416h157.539H313
				v-1.845V606.946V605L313,605z"/>
		</g>
		<circle style="fill:none;stroke:#111111;stroke-miterlimit:10;" cx="232.323" cy="905.637" r="12.934"/>
		<path style="fill:none;stroke:#111111;stroke-width:2;stroke-miterlimit:10;" d="M319,908.428
			c0,10.757-6.947,20.572-17.886,20.572H163.537C152.598,929,143,919.185,143,908.428V583.636c0-10.756,9.598-18.636,20.537-18.636
			h137.576c10.939,0,17.886,7.879,17.886,18.636V908.428z"/>
		<path style="fill:none;stroke:#111111;stroke-miterlimit:10;" d="M244.5,588.5c0,0.552-0.448,1-1,1h-25c-0.552,0-1-0.448-1-1l0,0
			c0-0.552,0.448-1,1-1h25C244.052,587.5,244.5,587.948,244.5,588.5L244.5,588.5z"/>
		<circle style="fill:none;stroke:#111111;stroke-miterlimit:10;" cx="232.266" cy="576.248" r="2.667"/>
		<circle style="fill:none;stroke:#111111;stroke-miterlimit:10;" cx="203.91" cy="587.271" r="2.933"/>
		<path style="fill:none;stroke:#111111;stroke-width:2;stroke-miterlimit:10;" d="M322.5,668"/>
		<line style="fill:none;stroke:#111111;stroke-width:2;stroke-miterlimit:10;" x1="319" y1="644" x2="319" y2="669"/>
		<path style="fill:none;stroke:#111111;stroke-width:2;stroke-miterlimit:10;" d="M322.5,644"/>
	</g>
	<g>
		<g>
			<path style="fill:#111111;" d="M313,120v280H155V120H313 M315,118h-2.045H155.416H153v1.946v280.209V402h2.416h157.539H315
				v-1.845V119.946V118L315,118z"/>
		</g>
		<circle style="fill:none;stroke:#111111;stroke-miterlimit:10;" cx="234.323" cy="418.637" r="12.934"/>
		<path style="fill:none;stroke:#111111;stroke-width:2;stroke-miterlimit:10;" d="M321,421.428
			c0,10.757-6.947,20.572-17.886,20.572H165.537C154.598,442,145,432.185,145,421.428V96.636C145,85.879,154.598,78,165.537,78
			h137.576C314.053,78,321,85.879,321,96.636V421.428z"/>
		<path style="fill:none;stroke:#111111;stroke-miterlimit:10;" d="M246.5,101.5c0,0.552-0.448,1-1,1h-25c-0.552,0-1-0.448-1-1l0,0
			c0-0.552,0.448-1,1-1h25C246.052,100.5,246.5,100.948,246.5,101.5L246.5,101.5z"/>
		<circle style="fill:none;stroke:#111111;stroke-miterlimit:10;" cx="234.266" cy="89.248" r="2.667"/>
		<circle style="fill:none;stroke:#111111;stroke-miterlimit:10;" cx="205.91" cy="100.271" r="2.933"/>
		<path style="fill:none;stroke:#111111;stroke-width:2;stroke-miterlimit:10;" d="M324.5,181"/>
		<line style="fill:none;stroke:#111111;stroke-width:2;stroke-miterlimit:10;" x1="321" y1="157" x2="321" y2="182"/>
		<path style="fill:none;stroke:#111111;stroke-width:2;stroke-miterlimit:10;" d="M324.5,157"/>
	</g>
	<g>
		<g>
			<path style="fill:#111111;" d="M1646,609v280h-158V609H1646 M1648,607h-2.045h-157.539H1486v1.946v280.209V891h2.416h157.539
				H1648v-1.845V608.946V607L1648,607z"/>
		</g>
		<circle style="fill:none;stroke:#111111;stroke-miterlimit:10;" cx="1567.323" cy="907.637" r="12.934"/>
		<path style="fill:none;stroke:#111111;stroke-width:2;stroke-miterlimit:10;" d="M1654,910.428
			c0,10.757-6.947,20.572-17.886,20.572h-137.577c-10.939,0-20.537-9.815-20.537-20.572V585.636
			c0-10.756,9.598-18.636,20.537-18.636h137.577c10.939,0,17.886,7.879,17.886,18.636V910.428z"/>
		<path style="fill:none;stroke:#111111;stroke-miterlimit:10;" d="M1579.5,590.5c0,0.552-0.448,1-1,1h-25c-0.552,0-1-0.448-1-1l0,0
			c0-0.552,0.448-1,1-1h25C1579.052,589.5,1579.5,589.948,1579.5,590.5L1579.5,590.5z"/>
		<circle style="fill:none;stroke:#111111;stroke-miterlimit:10;" cx="1567.266" cy="578.248" r="2.667"/>
		<circle style="fill:none;stroke:#111111;stroke-miterlimit:10;" cx="1538.91" cy="589.271" r="2.933"/>
		<path style="fill:none;stroke:#111111;stroke-width:2;stroke-miterlimit:10;" d="M1657.5,670"/>
		<line style="fill:none;stroke:#111111;stroke-width:2;stroke-miterlimit:10;" x1="1654" y1="646" x2="1654" y2="671"/>
		<path style="fill:none;stroke:#111111;stroke-width:2;stroke-miterlimit:10;" d="M1657.5,646"/>
	</g>
	<g>
		<g>
			<path style="fill:#111111;" d="M1649,122v280h-158V122H1649 M1651,120h-2.045h-157.539H1489v1.946v280.209V404h2.416h157.539
				H1651v-1.845V121.946V120L1651,120z"/>
		</g>
		<circle style="fill:none;stroke:#111111;stroke-miterlimit:10;" cx="1570.323" cy="420.637" r="12.934"/>
		<path style="fill:none;stroke:#111111;stroke-width:2;stroke-miterlimit:10;" d="M1657,423.428
			c0,10.757-6.947,20.572-17.886,20.572h-137.577c-10.939,0-20.537-9.815-20.537-20.572V98.636c0-10.757,9.598-18.636,20.537-18.636
			h137.577c10.939,0,17.886,7.879,17.886,18.636V423.428z"/>
		<path style="fill:none;stroke:#111111;stroke-miterlimit:10;" d="M1582.5,103.5c0,0.552-0.448,1-1,1h-25c-0.552,0-1-0.448-1-1l0,0
			c0-0.552,0.448-1,1-1h25C1582.052,102.5,1582.5,102.948,1582.5,103.5L1582.5,103.5z"/>
		<circle style="fill:none;stroke:#111111;stroke-miterlimit:10;" cx="1570.266" cy="91.248" r="2.667"/>
		<circle style="fill:none;stroke:#111111;stroke-miterlimit:10;" cx="1541.91" cy="102.271" r="2.933"/>
		<path style="fill:none;stroke:#111111;stroke-width:2;stroke-miterlimit:10;" d="M1660.5,183"/>
		<line style="fill:none;stroke:#111111;stroke-width:2;stroke-miterlimit:10;" x1="1657" y1="159" x2="1657" y2="184"/>
		<path style="fill:none;stroke:#111111;stroke-width:2;stroke-miterlimit:10;" d="M1660.5,159"/>
	</g>
	<g>
		<g>
			<path style="fill:#111111;" d="M955,607v280H797V607H955 M957,605h-2.045H797.416H795v1.946v280.209V889h2.416h157.539H957
				v-1.845V606.946V605L957,605z"/>
		</g>
		<circle style="fill:none;stroke:#111111;stroke-miterlimit:10;" cx="876.323" cy="905.637" r="12.934"/>
		<path style="fill:none;stroke:#111111;stroke-width:2;stroke-miterlimit:10;" d="M963,908.428
			c0,10.757-6.947,20.572-17.886,20.572H807.537C796.598,929,787,919.185,787,908.428V583.636c0-10.756,9.598-18.636,20.537-18.636
			h137.576c10.939,0,17.886,7.879,17.886,18.636V908.428z"/>
		<path style="fill:none;stroke:#111111;stroke-miterlimit:10;" d="M888.5,588.5c0,0.552-0.448,1-1,1h-25c-0.552,0-1-0.448-1-1l0,0
			c0-0.552,0.448-1,1-1h25C888.052,587.5,888.5,587.948,888.5,588.5L888.5,588.5z"/>
		<circle style="fill:none;stroke:#111111;stroke-miterlimit:10;" cx="876.266" cy="576.248" r="2.667"/>
		<circle style="fill:none;stroke:#111111;stroke-miterlimit:10;" cx="847.91" cy="587.271" r="2.933"/>
		<path style="fill:none;stroke:#111111;stroke-width:2;stroke-miterlimit:10;" d="M966.5,668"/>
		<line style="fill:none;stroke:#111111;stroke-width:2;stroke-miterlimit:10;" x1="963" y1="644" x2="963" y2="669"/>
		<path style="fill:none;stroke:#111111;stroke-width:2;stroke-miterlimit:10;" d="M966.5,644"/>
	</g>
	<g>
		<g>
			<path style="fill:#111111;" d="M958,120v280H800V120H958 M960,118h-2.045H800.416H798v1.946v280.209V402h2.416h157.539H960
				v-1.845V119.946V118L960,118z"/>
		</g>
		<circle style="fill:none;stroke:#111111;stroke-miterlimit:10;" cx="879.323" cy="418.637" r="12.934"/>
		<path style="fill:none;stroke:#111111;stroke-width:2;stroke-miterlimit:10;" d="M966,421.428
			c0,10.757-6.947,20.572-17.886,20.572H810.537C799.598,442,790,432.185,790,421.428V96.636C790,85.879,799.598,78,810.537,78
			h137.576C959.053,78,966,85.879,966,96.636V421.428z"/>
		<path style="fill:none;stroke:#111111;stroke-miterlimit:10;" d="M891.5,101.5c0,0.552-0.448,1-1,1h-25c-0.552,0-1-0.448-1-1l0,0
			c0-0.552,0.448-1,1-1h25C891.052,100.5,891.5,100.948,891.5,101.5L891.5,101.5z"/>
		<circle style="fill:none;stroke:#111111;stroke-miterlimit:10;" cx="879.266" cy="89.248" r="2.667"/>
		<circle style="fill:none;stroke:#111111;stroke-miterlimit:10;" cx="850.91" cy="100.271" r="2.933"/>
		<path style="fill:none;stroke:#111111;stroke-width:2;stroke-miterlimit:10;" d="M969.5,181"/>
		<line style="fill:none;stroke:#111111;stroke-width:2;stroke-miterlimit:10;" x1="966" y1="157" x2="966" y2="182"/>
		<path style="fill:none;stroke:#111111;stroke-width:2;stroke-miterlimit:10;" d="M969.5,157"/>
	</g>
	<g>
		<g>
			<path style="fill:#111111;" d="M1295,607v280h-158V607H1295 M1297,605h-2.045h-157.539H1135v1.946v280.209V889h2.416h157.539
				H1297v-1.845V606.946V605L1297,605z"/>
		</g>
		<circle style="fill:none;stroke:#111111;stroke-miterlimit:10;" cx="1216.323" cy="905.637" r="12.934"/>
		<path style="fill:none;stroke:#111111;stroke-width:2;stroke-miterlimit:10;" d="M1303,908.428
			c0,10.757-6.947,20.572-17.886,20.572h-137.577c-10.939,0-20.537-9.815-20.537-20.572V583.636
			c0-10.756,9.598-18.636,20.537-18.636h137.577c10.939,0,17.886,7.879,17.886,18.636V908.428z"/>
		<path style="fill:none;stroke:#111111;stroke-miterlimit:10;" d="M1228.5,588.5c0,0.552-0.448,1-1,1h-25c-0.552,0-1-0.448-1-1l0,0
			c0-0.552,0.448-1,1-1h25C1228.052,587.5,1228.5,587.948,1228.5,588.5L1228.5,588.5z"/>
		<circle style="fill:none;stroke:#111111;stroke-miterlimit:10;" cx="1216.266" cy="576.248" r="2.667"/>
		<circle style="fill:none;stroke:#111111;stroke-miterlimit:10;" cx="1187.91" cy="587.271" r="2.933"/>
		<path style="fill:none;stroke:#111111;stroke-width:2;stroke-miterlimit:10;" d="M1306.5,668"/>
		<line style="fill:none;stroke:#111111;stroke-width:2;stroke-miterlimit:10;" x1="1303" y1="644" x2="1303" y2="669"/>
		<path style="fill:none;stroke:#111111;stroke-width:2;stroke-miterlimit:10;" d="M1306.5,644"/>
	</g>
	<g>
		<g>
			<path style="fill:#111111;" d="M1298,120v280h-158V120H1298 M1300,118h-2.045h-157.539H1138v1.946v280.209V402h2.416h157.539
				H1300v-1.845V119.946V118L1300,118z"/>
		</g>
		<circle style="fill:none;stroke:#111111;stroke-miterlimit:10;" cx="1219.323" cy="418.637" r="12.934"/>
		<path style="fill:none;stroke:#111111;stroke-width:2;stroke-miterlimit:10;" d="M1306,421.428
			c0,10.757-6.947,20.572-17.886,20.572h-137.577c-10.939,0-20.537-9.815-20.537-20.572V96.636c0-10.757,9.598-18.636,20.537-18.636
			h137.577c10.939,0,17.886,7.879,17.886,18.636V421.428z"/>
		<path style="fill:none;stroke:#111111;stroke-miterlimit:10;" d="M1231.5,101.5c0,0.552-0.448,1-1,1h-25c-0.552,0-1-0.448-1-1l0,0
			c0-0.552,0.448-1,1-1h25C1231.052,100.5,1231.5,100.948,1231.5,101.5L1231.5,101.5z"/>
		<circle style="fill:none;stroke:#111111;stroke-miterlimit:10;" cx="1219.266" cy="89.248" r="2.667"/>
		<circle style="fill:none;stroke:#111111;stroke-miterlimit:10;" cx="1190.91" cy="100.271" r="2.933"/>
		<path style="fill:none;stroke:#111111;stroke-width:2;stroke-miterlimit:10;" d="M1309.5,181"/>
		<line style="fill:none;stroke:#111111;stroke-width:2;stroke-miterlimit:10;" x1="1306" y1="157" x2="1306" y2="182"/>
		<path style="fill:none;stroke:#111111;stroke-width:2;stroke-miterlimit:10;" d="M1309.5,157"/>
	</g>
	<g>
		<g>
			<path style="fill:#111111;" d="M633,609v280H475V609H633 M635,607h-2.045H475.416H473v1.946v280.209V891h2.416h157.539H635
				v-1.845V608.946V607L635,607z"/>
		</g>
		<circle style="fill:none;stroke:#111111;stroke-miterlimit:10;" cx="554.323" cy="907.637" r="12.934"/>
		<path style="fill:none;stroke:#111111;stroke-width:2;stroke-miterlimit:10;" d="M641,910.428
			c0,10.757-6.947,20.572-17.886,20.572H485.537C474.598,931,465,921.185,465,910.428V585.636c0-10.756,9.598-18.636,20.537-18.636
			h137.576c10.939,0,17.886,7.879,17.886,18.636V910.428z"/>
		<path style="fill:none;stroke:#111111;stroke-miterlimit:10;" d="M566.5,590.5c0,0.552-0.448,1-1,1h-25c-0.552,0-1-0.448-1-1l0,0
			c0-0.552,0.448-1,1-1h25C566.052,589.5,566.5,589.948,566.5,590.5L566.5,590.5z"/>
		<circle style="fill:none;stroke:#111111;stroke-miterlimit:10;" cx="554.266" cy="578.248" r="2.667"/>
		<circle style="fill:none;stroke:#111111;stroke-miterlimit:10;" cx="525.91" cy="589.271" r="2.933"/>
		<path style="fill:none;stroke:#111111;stroke-width:2;stroke-miterlimit:10;" d="M644.5,670"/>
		<line style="fill:none;stroke:#111111;stroke-width:2;stroke-miterlimit:10;" x1="641" y1="646" x2="641" y2="671"/>
		<path style="fill:none;stroke:#111111;stroke-width:2;stroke-miterlimit:10;" d="M644.5,646"/>
	</g>
	<g>
		<g>
			<path style="fill:#111111;" d="M636,122v280H478V122H636 M638,120h-2.045H478.416H476v1.946v280.209V404h2.416h157.539H638
				v-1.845V121.946V120L638,120z"/>
		</g>
		<circle style="fill:none;stroke:#111111;stroke-miterlimit:10;" cx="557.323" cy="420.637" r="12.934"/>
		<path style="fill:none;stroke:#111111;stroke-width:2;stroke-miterlimit:10;" d="M644,423.428
			c0,10.757-6.947,20.572-17.886,20.572H488.537C477.598,444,468,434.185,468,423.428V98.636C468,87.879,477.598,80,488.537,80
			h137.576C637.053,80,644,87.879,644,98.636V423.428z"/>
		<path style="fill:none;stroke:#111111;stroke-miterlimit:10;" d="M569.5,103.5c0,0.552-0.448,1-1,1h-25c-0.552,0-1-0.448-1-1l0,0
			c0-0.552,0.448-1,1-1h25C569.052,102.5,569.5,102.948,569.5,103.5L569.5,103.5z"/>
		<circle style="fill:none;stroke:#111111;stroke-miterlimit:10;" cx="557.266" cy="91.248" r="2.667"/>
		<circle style="fill:none;stroke:#111111;stroke-miterlimit:10;" cx="528.91" cy="102.271" r="2.933"/>
		<path style="fill:none;stroke:#111111;stroke-width:2;stroke-miterlimit:10;" d="M647.5,183"/>
		<line style="fill:none;stroke:#111111;stroke-width:2;stroke-miterlimit:10;" x1="644" y1="159" x2="644" y2="184"/>
		<path style="fill:none;stroke:#111111;stroke-width:2;stroke-miterlimit:10;" d="M647.5,159"/>
	</g>
</g>
</svg>
