<?xml version="1.0" encoding="utf-8"?>
<!-- Generator: Adobe Illustrator 17.0.0, SVG Export Plug-In . SVG Version: 6.00 Build 0)  -->
<!DOCTYPE svg PUBLIC "-//W3C//DTD SVG 1.1//EN" "http://www.w3.org/Graphics/SVG/1.1/DTD/svg11.dtd">
<svg version="1.1" xmlns="http://www.w3.org/2000/svg" xmlns:xlink="http://www.w3.org/1999/xlink" x="0px" y="0px" width="1800px"
	 height="1000px" viewBox="0 0 1800 1000" style="enable-background:new 0 0 1800 1000;" xml:space="preserve">
<g id="Layer_2" style="display:none;">
	<rect id="background" style="display:inline;fill:#CE2020;" width="1798" height="1000"/>
</g>
<g id="Layer_3">
</g>
<g id="Layer_5">
	<g>
		<path style="fill:#FFFFFF;stroke:#111111;stroke-width:2;stroke-miterlimit:10;" d="M641,910.428
			c0,10.757-6.947,20.572-17.886,20.572H485.537C474.598,931,465,921.185,465,910.428V585.636c0-10.756,9.598-18.636,20.537-18.636
			h137.576c10.939,0,17.886,7.879,17.886,18.636V910.428z"/>
		<circle style="fill:none;stroke:#111111;stroke-miterlimit:10;" cx="554.323" cy="907.637" r="12.934"/>
		<path style="fill:none;stroke:#111111;stroke-miterlimit:10;" d="M566.5,590.5c0,0.552-0.448,1-1,1h-25c-0.552,0-1-0.448-1-1l0,0
			c0-0.552,0.448-1,1-1h25C566.052,589.5,566.5,589.948,566.5,590.5L566.5,590.5z"/>
		<g>
			<path style="fill:#111111;" d="M633,609v280H475V609H633 M635,607h-2.045H475.416H473v1.946v280.209V891h2.416h157.539H635
				v-1.845V608.946V607L635,607z"/>
		</g>
		<circle style="fill:none;stroke:#111111;stroke-miterlimit:10;" cx="554.266" cy="578.248" r="2.667"/>
		<circle style="fill:none;stroke:#111111;stroke-miterlimit:10;" cx="525.91" cy="589.271" r="2.933"/>
	</g>
	<g>
		<path style="fill:#FFFFFF;stroke:#111111;stroke-width:2;stroke-miterlimit:10;" d="M964,908.428
			c0,10.757-6.947,20.572-17.886,20.572H808.537C797.598,929,788,919.185,788,908.428V583.636c0-10.756,9.598-18.636,20.537-18.636
			h137.576c10.939,0,17.886,7.879,17.886,18.636V908.428z"/>
		<circle style="fill:none;stroke:#111111;stroke-miterlimit:10;" cx="877.323" cy="905.637" r="12.934"/>
		<path style="fill:none;stroke:#111111;stroke-miterlimit:10;" d="M889.5,588.5c0,0.552-0.448,1-1,1h-25c-0.552,0-1-0.448-1-1l0,0
			c0-0.552,0.448-1,1-1h25C889.052,587.5,889.5,587.948,889.5,588.5L889.5,588.5z"/>
		<g>
			<path style="fill:#111111;" d="M956,607v280H798V607H956 M958,605h-2.045H798.416H796v1.946v280.209V889h2.416h157.539H958
				v-1.845V606.946V605L958,605z"/>
		</g>
		<circle style="fill:none;stroke:#111111;stroke-miterlimit:10;" cx="877.266" cy="576.248" r="2.667"/>
		<circle style="fill:none;stroke:#111111;stroke-miterlimit:10;" cx="848.91" cy="587.271" r="2.933"/>
	</g>
	<g>
		<path style="fill:#FFFFFF;stroke:#111111;stroke-width:2;stroke-miterlimit:10;" d="M965,420.428
			c0,10.757-6.947,20.572-17.886,20.572H809.537C798.598,441,789,431.185,789,420.428V95.636C789,84.879,798.598,77,809.537,77
			h137.576C958.053,77,965,84.879,965,95.636V420.428z"/>
		<circle style="fill:none;stroke:#111111;stroke-miterlimit:10;" cx="878.323" cy="417.637" r="12.934"/>
		<path style="fill:none;stroke:#111111;stroke-miterlimit:10;" d="M890.5,100.5c0,0.552-0.448,1-1,1h-25c-0.552,0-1-0.448-1-1l0,0
			c0-0.552,0.448-1,1-1h25C890.052,99.5,890.5,99.948,890.5,100.5L890.5,100.5z"/>
		<g>
			<path style="fill:#111111;" d="M957,119v280H799V119H957 M959,117h-2.045H799.416H797v1.946v280.209V401h2.416h157.539H959
				v-1.845V118.946V117L959,117z"/>
		</g>
		<circle style="fill:none;stroke:#111111;stroke-miterlimit:10;" cx="878.266" cy="88.248" r="2.667"/>
		<circle style="fill:none;stroke:#111111;stroke-miterlimit:10;" cx="849.91" cy="99.271" r="2.933"/>
	</g>
	<g>
		<path style="fill:#FFFFFF;stroke:#111111;stroke-width:2;stroke-miterlimit:10;" d="M1304,421.428
			c0,10.757-6.947,20.572-17.886,20.572h-137.577c-10.939,0-20.537-9.815-20.537-20.572V96.636c0-10.757,9.598-18.636,20.537-18.636
			h137.577c10.939,0,17.886,7.879,17.886,18.636V421.428z"/>
		<circle style="fill:none;stroke:#111111;stroke-miterlimit:10;" cx="1217.323" cy="418.637" r="12.934"/>
		<path style="fill:none;stroke:#111111;stroke-miterlimit:10;" d="M1229.5,101.5c0,0.552-0.448,1-1,1h-25c-0.552,0-1-0.448-1-1l0,0
			c0-0.552,0.448-1,1-1h25C1229.052,100.5,1229.5,100.948,1229.5,101.5L1229.5,101.5z"/>
		<g>
			<path style="fill:#111111;" d="M1296,120v280h-158V120H1296 M1298,118h-2.045h-157.539H1136v1.946v280.209V402h2.416h157.539
				H1298v-1.845V119.946V118L1298,118z"/>
		</g>
		<circle style="fill:none;stroke:#111111;stroke-miterlimit:10;" cx="1217.266" cy="89.248" r="2.667"/>
		<circle style="fill:none;stroke:#111111;stroke-miterlimit:10;" cx="1188.91" cy="100.271" r="2.933"/>
	</g>
	<g>
		<path style="fill:#FFFFFF;stroke:#111111;stroke-width:2;stroke-miterlimit:10;" d="M1305,908.428
			c0,10.757-6.947,20.572-17.886,20.572h-137.577c-10.939,0-20.537-9.815-20.537-20.572V583.636
			c0-10.756,9.598-18.636,20.537-18.636h137.577c10.939,0,17.886,7.879,17.886,18.636V908.428z"/>
		<circle style="fill:none;stroke:#111111;stroke-miterlimit:10;" cx="1218.323" cy="905.637" r="12.934"/>
		<path style="fill:none;stroke:#111111;stroke-miterlimit:10;" d="M1230.5,588.5c0,0.552-0.448,1-1,1h-25c-0.552,0-1-0.448-1-1l0,0
			c0-0.552,0.448-1,1-1h25C1230.052,587.5,1230.5,587.948,1230.5,588.5L1230.5,588.5z"/>
		<g>
			<path style="fill:#111111;" d="M1297,607v280h-158V607H1297 M1299,605h-2.045h-157.539H1137v1.946v280.209V889h2.416h157.539
				H1299v-1.845V606.946V605L1299,605z"/>
		</g>
		<circle style="fill:none;stroke:#111111;stroke-miterlimit:10;" cx="1218.266" cy="576.248" r="2.667"/>
		<circle style="fill:none;stroke:#111111;stroke-miterlimit:10;" cx="1189.91" cy="587.271" r="2.933"/>
	</g>
	<g>
		<path style="fill:#FFFFFF;stroke:#111111;stroke-width:2;stroke-miterlimit:10;" d="M1655,910.428
			c0,10.757-6.947,20.572-17.886,20.572h-137.577c-10.939,0-20.537-9.815-20.537-20.572V585.636
			c0-10.756,9.598-18.636,20.537-18.636h137.577c10.939,0,17.886,7.879,17.886,18.636V910.428z"/>
		<circle style="fill:none;stroke:#111111;stroke-miterlimit:10;" cx="1568.323" cy="907.637" r="12.934"/>
		<path style="fill:none;stroke:#111111;stroke-miterlimit:10;" d="M1580.5,590.5c0,0.552-0.448,1-1,1h-25c-0.552,0-1-0.448-1-1l0,0
			c0-0.552,0.448-1,1-1h25C1580.052,589.5,1580.5,589.948,1580.5,590.5L1580.5,590.5z"/>
		<g>
			<path style="fill:#111111;" d="M1647,609v280h-158V609H1647 M1649,607h-2.045h-157.539H1487v1.946v280.209V891h2.416h157.539
				H1649v-1.845V608.946V607L1649,607z"/>
		</g>
		<circle style="fill:none;stroke:#111111;stroke-miterlimit:10;" cx="1568.266" cy="578.248" r="2.667"/>
		<circle style="fill:none;stroke:#111111;stroke-miterlimit:10;" cx="1539.91" cy="589.271" r="2.933"/>
	</g>
	<g>
		<path style="fill:#FFFFFF;stroke:#111111;stroke-width:2;stroke-miterlimit:10;" d="M1655,421.428
			c0,10.757-6.947,20.572-17.886,20.572h-137.577c-10.939,0-20.537-9.815-20.537-20.572V96.636c0-10.757,9.598-18.636,20.537-18.636
			h137.577c10.939,0,17.886,7.879,17.886,18.636V421.428z"/>
		<circle style="fill:none;stroke:#111111;stroke-miterlimit:10;" cx="1568.323" cy="418.637" r="12.934"/>
		<path style="fill:none;stroke:#111111;stroke-miterlimit:10;" d="M1580.5,101.5c0,0.552-0.448,1-1,1h-25c-0.552,0-1-0.448-1-1l0,0
			c0-0.552,0.448-1,1-1h25C1580.052,100.5,1580.5,100.948,1580.5,101.5L1580.5,101.5z"/>
		<g>
			<path style="fill:#111111;" d="M1647,120v280h-158V120H1647 M1649,118h-2.045h-157.539H1487v1.946v280.209V402h2.416h157.539
				H1649v-1.845V119.946V118L1649,118z"/>
		</g>
		<circle style="fill:none;stroke:#111111;stroke-miterlimit:10;" cx="1568.266" cy="89.248" r="2.667"/>
		<circle style="fill:none;stroke:#111111;stroke-miterlimit:10;" cx="1539.91" cy="100.271" r="2.933"/>
	</g>
	<g>
		<path style="fill:#FFFFFF;stroke:#111111;stroke-width:2;stroke-miterlimit:10;" d="M321,421.428
			c0,10.757-6.947,20.572-17.886,20.572H165.537C154.598,442,145,432.185,145,421.428V96.636C145,85.879,154.598,78,165.537,78
			h137.576C314.053,78,321,85.879,321,96.636V421.428z"/>
		<circle style="fill:none;stroke:#111111;stroke-miterlimit:10;" cx="234.323" cy="418.637" r="12.934"/>
		<path style="fill:none;stroke:#111111;stroke-miterlimit:10;" d="M246.5,101.5c0,0.552-0.448,1-1,1h-25c-0.552,0-1-0.448-1-1l0,0
			c0-0.552,0.448-1,1-1h25C246.052,100.5,246.5,100.948,246.5,101.5L246.5,101.5z"/>
		<g>
			<path style="fill:#111111;" d="M313,120v280H155V120H313 M315,118h-2.045H155.416H153v1.946v280.209V402h2.416h157.539H315
				v-1.845V119.946V118L315,118z"/>
		</g>
		<circle style="fill:none;stroke:#111111;stroke-miterlimit:10;" cx="234.266" cy="89.248" r="2.667"/>
		<circle style="fill:none;stroke:#111111;stroke-miterlimit:10;" cx="205.91" cy="100.271" r="2.933"/>
	</g>
	<g>
		<path style="fill:#FFFFFF;stroke:#111111;stroke-width:2;stroke-miterlimit:10;" d="M319,909.428
			c0,10.757-6.947,20.572-17.886,20.572H163.537C152.598,930,143,920.185,143,909.428V584.636c0-10.756,9.598-18.636,20.537-18.636
			h137.576c10.939,0,17.886,7.879,17.886,18.636V909.428z"/>
		<circle style="fill:none;stroke:#111111;stroke-miterlimit:10;" cx="232.323" cy="906.637" r="12.934"/>
		<path style="fill:none;stroke:#111111;stroke-miterlimit:10;" d="M244.5,589.5c0,0.552-0.448,1-1,1h-25c-0.552,0-1-0.448-1-1l0,0
			c0-0.552,0.448-1,1-1h25C244.052,588.5,244.5,588.948,244.5,589.5L244.5,589.5z"/>
		<g>
			<path style="fill:#111111;" d="M311,608v280H153V608H311 M313,606h-2.045H153.416H151v1.946v280.209V890h2.416h157.539H313
				v-1.845V607.946V606L313,606z"/>
		</g>
		<circle style="fill:none;stroke:#111111;stroke-miterlimit:10;" cx="232.266" cy="577.248" r="2.667"/>
		<circle style="fill:none;stroke:#111111;stroke-miterlimit:10;" cx="203.91" cy="588.271" r="2.933"/>
	</g>
	<g>
		<path style="fill:#FFFFFF;stroke:#111111;stroke-width:2;stroke-miterlimit:10;" d="M644,423.428
			c0,10.757-6.947,20.572-17.886,20.572H488.537C477.598,444,468,434.185,468,423.428V98.636C468,87.879,477.598,80,488.537,80
			h137.576C637.053,80,644,87.879,644,98.636V423.428z"/>
		<circle style="fill:none;stroke:#111111;stroke-miterlimit:10;" cx="557.323" cy="420.637" r="12.934"/>
		<path style="fill:none;stroke:#111111;stroke-miterlimit:10;" d="M569.5,103.5c0,0.552-0.448,1-1,1h-25c-0.552,0-1-0.448-1-1l0,0
			c0-0.552,0.448-1,1-1h25C569.052,102.5,569.5,102.948,569.5,103.5L569.5,103.5z"/>
		<g>
			<path style="fill:#111111;" d="M636,122v280H478V122H636 M638,120h-2.045H478.416H476v1.946v280.209V404h2.416h157.539H638
				v-1.845V121.946V120L638,120z"/>
		</g>
		<circle style="fill:none;stroke:#111111;stroke-miterlimit:10;" cx="557.266" cy="91.248" r="2.667"/>
		<circle style="fill:none;stroke:#111111;stroke-miterlimit:10;" cx="528.91" cy="102.271" r="2.933"/>
	</g>
</g>
</svg>
