<?xml version="1.0" encoding="utf-8"?>
<!-- Generator: Adobe Illustrator 17.0.0, SVG Export Plug-In . SVG Version: 6.00 Build 0)  -->
<!DOCTYPE svg PUBLIC "-//W3C//DTD SVG 1.1//EN" "http://www.w3.org/Graphics/SVG/1.1/DTD/svg11.dtd">
<svg version="1.1" id="Capa_1" xmlns="http://www.w3.org/2000/svg" xmlns:xlink="http://www.w3.org/1999/xlink" x="0px" y="0px"
	 width="500px" height="325px" viewBox="0 0 500 325" style="enable-background:new 0 0 500 325;" xml:space="preserve">
<path style="fill:#B67F5F;" d="M287.213,71.195c-5.447-20.475-23.429-34.189-36.833-41.845c-5.406-3.088-12.066,1.263-11.346,7.446
	c1.089,9.356-0.908,20.713-14.434,26.494l-23.056,10.43c-15.605,6.385-23.081,24.214-16.696,39.816
	c1.972,4.822,5.91,9.893,9.662,12.994l94.503-38.162C289.568,83.485,288.561,76.262,287.213,71.195z"/>
<path style="fill:#A06E50;" d="M185.102,114.04c2.033,4.669,5.788,9.497,9.41,12.49l94.503-38.162
	c0.525-4.636-0.37-11.332-1.615-16.339c-0.38,0.141-0.764,0.246-1.143,0.401L185.102,114.04z"/>
<path style="fill:#B67F5F;" d="M329.296,109.25c-7.51-18.367-28.484-27.159-46.855-19.647l-120.698,49.648
	c-18.363,7.512-27.159,28.488-19.647,46.855c5.69,13.911,19.108,22.331,33.264,22.331c4.53,0,9.137-0.864,13.591-2.684
	l120.698-49.648C328.011,148.593,336.809,127.616,329.296,109.25z"/>
<g>
	<path style="fill:#A06E50;" d="M175.359,208.436c4.53,0,9.137-0.864,13.591-2.684l120.698-49.648
		c16.611-6.796,25.349-24.607,21.311-41.54l-186.564,76.131C150.926,201.836,162.843,208.436,175.359,208.436z"/>
	<path style="fill:#A06E50;" d="M132.977,296.666h234.057c22.481,0,40.706-18.225,40.706-40.706l0,0
		c0-22.481-18.225-40.706-40.706-40.706H132.977V296.666z"/>
</g>
<path style="fill:#8C5A41;" d="M292.992,256.706l91.911-37.278c-5.4-2.647-11.45-4.174-17.869-4.174H132.977v81.411h234.057
	c15.058,0,28.174-8.197,35.216-20.353H296.817C285.639,276.313,282.634,260.907,292.992,256.706z"/>
<path style="fill:#B67F5F;" d="M375.938,156.74c-8.509-20.81-32.273-30.773-53.089-22.261l-205.297,83.796
	c-20.805,8.512-30.773,32.279-22.261,53.089c6.447,15.762,21.649,25.302,37.689,25.302c5.133,0,10.353-0.979,15.399-3.041
	l205.298-83.796C374.483,201.316,384.45,177.55,375.938,156.74z"/>
<path style="fill:#A06E50;" d="M178.061,263.096c-5.046,2.062-10.266,3.041-15.399,3.041c-16.04,0-31.243-9.54-37.689-25.302
	c-3.348-8.187-3.799-16.822-1.893-24.815l-5.527,2.256c-20.805,8.512-30.773,32.279-22.261,53.089
	c6.447,15.762,21.649,25.302,37.689,25.302c5.133,0,10.353-0.979,15.399-3.041l205.298-83.796
	c12.62-5.163,21.214-15.949,24.154-28.273L178.061,263.096z"/>
<g>
	<path style="fill:#FFFFFF;" d="M189.862,225.045c-5.053-1.258-8.356,5.041-4.627,8.677c17.47,17.033,39.997,27.326,64.659,27.326
		c24.662,0,47.189-10.294,64.659-27.326c3.729-3.635,0.426-9.935-4.627-8.677c-18.696,4.654-38.9,7.224-60.031,7.224
		C228.761,232.269,208.557,229.699,189.862,225.045z"/>
	<path style="fill:#FFFFFF;" d="M303.432,205.078L303.432,205.078c-9.835,0-17.809-7.973-17.809-17.809v-10.176
		c0-9.835,7.973-17.809,17.809-17.809l0,0c9.835,0,17.809,7.973,17.809,17.809v10.176
		C321.24,197.105,313.267,205.078,303.432,205.078z"/>
	<path style="fill:#FFFFFF;" d="M206.756,205.078L206.756,205.078c-9.835,0-17.809-7.973-17.809-17.809v-10.176
		c0-9.835,7.973-17.809,17.809-17.809l0,0c9.835,0,17.809,7.973,17.809,17.809v10.176
		C224.565,197.105,216.591,205.078,206.756,205.078z"/>
</g>
<path d="M367.034,210.494h-4.349c18.194-11.579,26.106-34.906,17.66-55.556c-4.596-11.242-13.296-20.019-24.495-24.715
	c-6.215-2.606-12.788-3.776-19.329-3.521c0.656-6.517-0.29-13.074-2.818-19.254c-4.084-9.986-11.81-17.782-21.755-21.953
	c-5.955-2.497-12.279-3.504-18.539-3.042c0.046-4.122-0.484-8.303-1.595-12.482c-5.818-21.868-24.459-36.408-39.072-44.756
	c-4.082-2.331-9.056-2.169-12.981,0.425c-3.904,2.58-5.995,7.065-5.455,11.706c1.24,10.653-2.547,17.707-11.576,21.566
	c-0.03,0.013-0.061,0.027-0.091,0.04l-22.98,10.396c-8.684,3.578-15.465,10.317-19.098,18.983
	c-3.645,8.693-3.687,18.286-0.118,27.007c1.343,3.284,3.182,6.344,5.421,9.07l-26.625,10.922
	c-9.982,4.082-17.777,11.808-21.948,21.755c-4.171,9.946-4.219,20.922-0.137,30.905c2.088,5.104,5.152,9.662,9.012,13.466
	L115.75,213.87c-23.201,9.492-34.356,36.093-24.864,59.297c7.022,17.167,23.546,28.26,42.096,28.26h234.052
	c25.07,0,45.466-20.396,45.466-45.466S392.104,210.494,367.034,210.494z M367.034,291.905H165.192l40.819-16.661
	c2.434-0.993,3.602-3.772,2.608-6.207c-0.993-2.434-3.773-3.602-6.207-2.608l-55.835,22.79c-4.363,1.783-8.938,2.687-13.597,2.687
	c-14.667,0-27.731-8.77-33.283-22.343c-7.503-18.346,1.315-39.376,19.654-46.879l66.421-27.115
	c3.314,8.349,11.467,14.271,20.982,14.271c12.445,0,22.57-10.125,22.57-22.57v-9.473l47.92-19.56
	c2.434-0.993,3.602-3.772,2.608-6.207c-0.993-2.434-3.773-3.602-6.207-2.608l-46.128,18.828
	c-3.447-8.062-11.456-13.726-20.763-13.726c-12.445,0-22.57,10.125-22.57,22.57v8.838l-28.133,11.485
	c-4.478-3.339-7.95-7.811-10.086-13.034c-3.12-7.629-3.082-16.016,0.105-23.617c3.187-7.601,9.143-13.505,16.776-16.625
	l43.171-17.708c2.433-0.998,3.596-3.779,2.598-6.211s-3.779-3.596-6.211-2.598l-7.154,2.935c-2.573-2.476-4.631-5.49-5.994-8.824
	c-2.606-6.369-2.576-13.373,0.086-19.72s7.636-11.28,14.007-13.886c0.053-0.022,0.107-0.044,0.159-0.069l23.012-10.411
	c12.838-5.507,18.961-16.657,17.245-31.402c-0.18-1.539,0.811-2.373,1.245-2.66c0.444-0.293,1.627-0.891,3.009-0.101
	c13.037,7.446,29.621,20.247,34.594,38.935c1.056,3.969,1.459,8.067,1.191,11.942c-0.929,0.305-1.853,0.632-2.766,1.007
	l-58.28,23.906c-2.433,0.998-3.596,3.779-2.598,6.211c0.998,2.432,3.779,3.595,6.211,2.598l58.278-23.905
	c7.629-3.124,16.016-3.09,23.617,0.098c7.599,3.187,13.503,9.146,16.625,16.778c2.246,5.491,2.86,11.37,1.814,17.134
	c-1.907,0.505-3.796,1.125-5.653,1.885L294,141.116c-2.434,0.993-3.602,3.772-2.608,6.207c0.993,2.434,3.771,3.602,6.207,2.608
	l27.053-11.043c8.89-3.636,18.662-3.593,27.516,0.119c8.852,3.712,15.73,10.651,19.364,19.538
	c7.504,18.345-1.314,39.375-19.654,46.878l-37.426,15.276c-1.764-0.635-3.724-0.759-5.679-0.272
	c-18.879,4.7-38.69,7.083-58.881,7.083c-20.193,0-40.002-2.383-58.881-7.083l0,0c-4.326-1.077-8.693,0.813-10.861,4.706
	c-2.221,3.986-1.513,8.808,1.76,12.001c18.968,18.493,43.111,28.678,67.982,28.678s49.014-10.185,67.982-28.678
	c2.414-2.354,3.428-5.594,2.905-8.732l20.537-8.383h25.716c19.82,0,35.945,16.125,35.945,35.945S386.854,291.905,367.034,291.905z
	 M193.707,187.269v-10.176c0-7.194,5.853-13.048,13.048-13.048s13.048,5.853,13.048,13.048v10.176
	c0,7.194-5.853,13.048-13.048,13.048S193.707,194.464,193.707,187.269z M311.228,230.313c-17.18,16.75-38.963,25.974-61.336,25.974
	s-44.156-9.224-61.335-25.974c-0.181-0.176-0.169-0.264-0.159-0.342c0.022-0.167,0.126-0.308,0.152-0.329
	c0.003,0,0.007-0.001,0.013-0.001c0.024,0,0.074,0.004,0.147,0.023c19.63,4.887,40.214,7.365,61.181,7.365
	c20.966,0,41.551-2.478,61.181-7.365c0.093-0.023,0.147-0.023,0.136-0.03c0.05,0.029,0.156,0.17,0.176,0.337
	C311.398,230.049,311.409,230.137,311.228,230.313z"/>
<path d="M303.432,209.839c12.445,0,22.569-10.125,22.569-22.57v-10.176c0-12.445-10.125-22.57-22.57-22.57
	s-22.569,10.125-22.569,22.57v10.176C280.861,199.714,290.987,209.839,303.432,209.839z M290.384,177.093
	c0-7.194,5.853-13.048,13.048-13.048c7.194,0,13.048,5.853,13.048,13.048v10.176c0,7.194-5.853,13.048-13.048,13.048l0,0
	c-7.194,0-13.048-5.853-13.048-13.048L290.384,177.093L290.384,177.093z"/>
<path d="M303.431,189.486c2.629,0,4.761-2.132,4.761-4.761v-5.088c0-2.629-2.132-4.761-4.761-4.761
	c-2.629,0-4.761,2.132-4.761,4.761v5.088C298.67,187.354,300.801,189.486,303.431,189.486z"/>
<path d="M211.516,184.725v-5.088c0-2.629-2.132-4.761-4.761-4.761c-2.629,0-4.761,2.132-4.761,4.761v5.088
	c0,2.629,2.132,4.761,4.761,4.761C209.384,189.486,211.516,187.354,211.516,184.725z"/>
</svg>
