<?xml version="1.0" encoding="utf-8"?>
<!-- Generator: Adobe Illustrator 17.0.0, SVG Export Plug-In . SVG Version: 6.00 Build 0)  -->
<!DOCTYPE svg PUBLIC "-//W3C//DTD SVG 1.1//EN" "http://www.w3.org/Graphics/SVG/1.1/DTD/svg11.dtd">
<svg version="1.1" id="Capa_1" xmlns="http://www.w3.org/2000/svg" xmlns:xlink="http://www.w3.org/1999/xlink" x="0px" y="0px"
	 width="500px" height="325px" viewBox="0 0 500 325" style="enable-background:new 0 0 500 325;" xml:space="preserve">
<circle style="fill:#FFE17D;" cx="249.999" cy="162.5" r="157.739"/>
<path style="fill:#FFD164;" d="M272.898,297.341c-87.117,0-157.739-70.622-157.739-157.739c0-37.726,13.261-72.344,35.353-99.488
	c-35.537,28.923-58.251,72.995-58.251,122.386c0,87.116,70.621,157.739,157.739,157.739c49.391,0,93.464-22.714,122.386-58.251
	C345.243,284.08,310.623,297.341,272.898,297.341z"/>
<path style="fill:#7D5046;" d="M303.427,162.501L303.427,162.501c-7.026,0-12.721-5.695-12.721-12.721v-10.177
	c0-7.026,5.695-12.721,12.721-12.721l0,0c7.026,0,12.721,5.695,12.721,12.721v10.177
	C316.148,156.806,310.453,162.501,303.427,162.501z"/>
<path style="fill:#9C6846;" d="M316.148,139.603c0-7.858-7.123-14.051-15.265-12.474v9.93c0,8.431,6.835,15.265,15.265,15.265l0,0
	V139.603z"/>
<path style="fill:#7D5046;" d="M196.572,162.501L196.572,162.501c-7.026,0-12.721-5.695-12.721-12.721v-10.177
	c0-7.026,5.695-12.721,12.721-12.721l0,0c7.026,0,12.721,5.695,12.721,12.721v10.177
	C209.293,156.806,203.598,162.501,196.572,162.501z"/>
<path style="fill:#9C6846;" d="M209.293,139.603c0-7.858-7.123-14.051-15.265-12.474v9.93c0,8.431,6.835,15.265,15.265,15.265l0,0
	V139.603z"/>
<path d="M196.566,131.639c2.629,0,4.761-2.132,4.761-4.761c0-2.63-2.132-4.761-4.761-4.761c-9.64,0-17.483,7.843-17.483,17.483
	v10.178c0,9.64,7.843,17.483,17.483,17.483s17.483-7.843,17.483-17.483v-7.634c0-2.629-2.132-4.761-4.761-4.761
	s-4.761,2.132-4.761,4.761v7.634c0,4.39-3.571,7.961-7.961,7.961s-7.961-3.571-7.961-7.961V139.6
	C188.604,135.211,192.176,131.639,196.566,131.639z"/>
<path d="M320.917,149.779v-7.634c0-2.629-2.132-4.761-4.761-4.761s-4.761,2.132-4.761,4.761v7.634c0,4.39-3.571,7.961-7.961,7.961
	c-4.39,0-7.962-3.571-7.962-7.961v-10.178c0-4.39,3.572-7.961,7.962-7.961c2.629,0,4.761-2.132,4.761-4.761
	c0-2.63-2.132-4.761-4.761-4.761c-9.64,0-17.483,7.843-17.483,17.483v10.178c0,9.64,7.843,17.483,17.483,17.483
	C313.074,167.261,320.917,159.419,320.917,149.779z"/>
<path d="M202.614,236.969c10.841-11.783,28.556-18.818,47.386-18.818s36.545,7.035,47.386,18.818c0.939,1.02,2.22,1.537,3.505,1.537
	c1.152,0,2.307-0.416,3.222-1.257c1.935-1.78,2.06-4.792,0.28-6.727c-12.613-13.708-32.947-21.893-54.392-21.893
	s-41.78,8.185-54.392,21.893c-1.78,1.935-1.655,4.947,0.28,6.727C197.822,239.029,200.834,238.904,202.614,236.969z"/>
<path d="M97.09,157.875c1.164-39.104,17.048-75.881,44.725-103.559c27.678-27.678,64.455-43.561,103.559-44.725
	c38.934-1.158,76.426,12.333,105.579,37.992c1.974,1.737,4.982,1.546,6.719-0.428s1.546-4.982-0.428-6.719
	c-30.97-27.259-70.804-41.595-112.152-40.362c-41.539,1.236-80.608,18.109-110.008,47.51c-29.401,29.4-46.274,68.468-47.51,110.008
	c-1.231,41.352,13.103,81.183,40.362,112.152c0.941,1.07,2.255,1.615,3.576,1.615c1.117,0,2.239-0.391,3.143-1.187
	c1.973-1.737,2.166-4.746,0.428-6.719C109.424,234.302,95.932,196.807,97.09,157.875z"/>
<path d="M372.065,55.258c-1.737-1.973-4.746-2.166-6.719-0.428c-1.973,1.737-2.166,4.746-0.428,6.719
	c25.658,29.152,39.15,66.647,37.992,105.578c-1.164,39.104-17.047,75.881-44.725,103.559s-64.455,43.561-103.559,44.725
	c-38.932,1.158-76.426-12.333-105.579-37.992c-1.973-1.737-4.982-1.546-6.719,0.428c-1.737,1.974-1.546,4.982,0.428,6.719
	C172.498,310.742,210.41,325,249.995,325c1.636,0,3.274-0.024,4.914-0.073c41.54-1.237,80.608-18.109,110.008-47.51
	c29.401-29.4,46.274-68.469,47.51-110.008C413.657,126.057,399.324,86.227,372.065,55.258z"/>
</svg>
