<?xml version="1.0" encoding="utf-8"?>
<!-- Generator: Adobe Illustrator 17.0.0, SVG Export Plug-In . SVG Version: 6.00 Build 0)  -->
<!DOCTYPE svg PUBLIC "-//W3C//DTD SVG 1.1//EN" "http://www.w3.org/Graphics/SVG/1.1/DTD/svg11.dtd">
<svg version="1.1" xmlns="http://www.w3.org/2000/svg" xmlns:xlink="http://www.w3.org/1999/xlink" x="0px" y="0px"
	 width="411.167px" height="311px" viewBox="0 0 411.167 311" style="enable-background:new 0 0 411.167 311;" xml:space="preserve"
	>
<g id="Layer_2">
	<path style="fill:#FFFFFF;" d="M68.718,6.667c0,0-64.504-3.333-59.333,73.333L9.089,196c0,0-1.705,53.333,76.295,52l61.333,0.025
		v44.642l5.333,6.667h8l68-51.333l110.667,0.667c0,0,64.839,4.667,60-78l0.258-116c0,0-1.591-45.376-62.925-48.021L68.718,6.667z"/>
</g>
<g id="Capa_1">
	<g>
		<g>
			<path d="M340.585,1H67.851C54.279,1,41.358,5.257,30.482,13.311c-2.121,1.57-2.567,4.563-0.997,6.683
				c1.57,2.121,4.563,2.566,6.683,0.997c9.218-6.826,20.173-10.435,31.682-10.435h272.733c29.387,0,53.295,23.908,53.295,53.295
				v126.41c0,29.387-23.908,53.295-53.295,53.295H229.122c-1.968,0-3.87,0.823-5.216,2.255l-65.424,49.564
				c-1.412,1.501-3.05,1.075-3.688,0.823c-0.639-0.253-2.123-1.064-2.123-3.126v-42.355c0-3.948-3.212-7.16-7.16-7.16h-77.66
				c-29.387,0-53.296-23.908-53.296-53.295V63.851c0-10.811,3.218-21.22,9.306-30.099c1.492-2.177,0.938-5.15-1.238-6.642
				c-2.175-1.492-5.15-0.937-6.642,1.238C8.797,38.826,5,51.102,5,63.851v126.41c0,34.656,28.195,62.851,62.851,62.851h75.264
				v39.961c0,5.331,3.202,10.045,8.157,12.009c1.562,0.619,3.185,0.92,4.788,0.92c3.484,0,6.881-1.42,9.382-4.078l64.714-48.81
				h110.427c34.656,0,62.851-28.195,62.851-62.851V63.851C403.435,29.195,375.241,1,340.585,1z"/>
		</g>
	</g>
</g>
</svg>
